<svg width="32" height="32" viewBox="0 0 64 65" fill="none" xmlns="http://www.w3.org/2000/svg">
<g clip-path="url(#clip0_70_10)">
<path d="M1.3659 31.8638C1.3644 37.283 2.7804 42.5745 5.4729 47.2385L1.1084 63.174L17.4164 58.898C21.927 61.3536 26.9807 62.6402 32.1164 62.6405H32.1299C49.0836 62.6405 62.8844 48.8448 62.8916 31.888C62.8949 23.6713 59.6979 15.9448 53.8894 10.1318C48.0819 4.31929 40.3582 1.11654 32.1287 1.11279C15.1729 1.11279 1.37315 14.9078 1.36615 31.8638" fill="url(#paint0_linear_70_10)"/>
<path d="M0.2675 31.854C0.26575 37.4683 1.7325 42.949 4.521 47.78L0 64.2868L16.8927 59.8575C21.5472 62.3952 26.7878 63.7332 32.1203 63.7352H32.134C49.696 63.7352 63.9925 49.4432 64 31.8795C64.003 23.3675 60.691 15.3632 54.675 9.342C48.6582 3.3215 40.6582 0.0035 32.134 0C14.569 0 0.2745 14.29 0.2675 31.854ZM10.3278 46.948L9.697 45.9468C7.0455 41.7308 5.646 36.8588 5.648 31.856C5.6535 17.2573 17.5345 5.38 32.144 5.38C39.219 5.383 45.868 8.141 50.869 13.145C55.8697 18.1495 58.6215 24.802 58.6198 31.8775C58.6133 46.4763 46.732 58.355 32.134 58.355H32.1235C27.3703 58.3525 22.7085 57.076 18.643 54.6637L17.6755 54.09L7.651 56.7183L10.3278 46.948Z" fill="url(#paint1_linear_70_10)"/>
<path d="M24.1694 18.5369C23.5729 17.2111 22.9451 17.1844 22.3779 17.1611C21.9134 17.1411 21.3824 17.1426 20.8519 17.1426C20.3209 17.1426 19.4581 17.3424 18.7289 18.1386C17.9989 18.9356 15.9419 20.8616 15.9419 24.7789C15.9419 28.6964 18.7951 32.4821 19.1929 33.0139C19.5911 33.5446 24.7011 41.8406 32.7941 45.0321C39.5201 47.6844 40.8889 47.1569 42.3486 47.0239C43.8086 46.8914 47.0596 45.0984 47.7229 43.2391C48.3866 41.3801 48.3866 39.7866 48.1876 39.4536C47.9886 39.1219 47.4576 38.9226 46.6614 38.5246C45.8649 38.1264 41.9504 36.2001 41.2206 35.9344C40.4906 35.6689 39.9599 35.5364 39.4289 36.3336C38.8979 37.1296 37.3731 38.9226 36.9084 39.4536C36.4441 39.9859 35.9794 40.0521 35.1834 39.6539C34.3866 39.2544 31.8224 38.4146 28.7801 35.7024C26.4131 33.5919 24.8151 30.9856 24.3506 30.1884C23.8861 29.3924 24.3009 28.9609 24.7001 28.5641C25.0579 28.2074 25.4966 27.6344 25.8951 27.1696C26.2921 26.7046 26.4246 26.3729 26.6901 25.8419C26.9559 25.3104 26.8229 24.8454 26.6241 24.4471C26.4246 24.0489 24.8774 20.1111 24.1694 18.5369Z" fill="white"/>
</g>
<defs>
<linearGradient id="paint0_linear_70_10" x1="3090.27" y1="6207.24" x2="3090.27" y2="1.11279" gradientUnits="userSpaceOnUse">
<stop stop-color="#1FAF38"/>
<stop offset="1" stop-color="#60D669"/>
</linearGradient>
<linearGradient id="paint1_linear_70_10" x1="3200" y1="6428.68" x2="3200" y2="0" gradientUnits="userSpaceOnUse">
<stop stop-color="#F9F9F9"/>
<stop offset="1" stop-color="white"/>
</linearGradient>
<clipPath id="clip0_70_10">
<rect width="64" height="64.5" fill="white"/>
</clipPath>
</defs>
</svg>
