<svg width="48" height="48" viewBox="0 0 48 48" fill="none" xmlns="http://www.w3.org/2000/svg">
<g clip-path="url(#clip0_67_38)">
<path d="M22.2712 0.0570007C22.0897 0.0761257 21.5231 0.143251 21.0232 0.202126C19.008 0.432001 16.7227 1.03725 14.7172 1.88213C7.45909 4.91475 1.99646 11.5684 0.48934 19.2C0.13459 21.015 0.0483398 21.9067 0.0483398 24C0.0483398 26.6981 0.316465 28.56 1.02709 30.9127C3.35021 38.6115 9.39821 44.6497 17.1168 46.9819C19.44 47.6835 21.312 47.9516 24 47.9516C26.6981 47.9516 28.56 47.6835 30.9127 46.9729C38.6115 44.6497 44.6497 38.6018 46.9818 30.8831C47.6835 28.56 47.9516 26.688 47.9516 24C47.9516 22.8574 47.8946 21.5524 47.8271 21.0716C47.0493 15.5231 44.7641 10.8574 40.9541 7.04587C37.1512 3.26362 32.505 0.969751 27.0712 0.192001C26.3227 0.0862507 22.857 -0.0104993 22.2712 0.0570007ZM14.4476 15.177C14.9576 15.3307 15.1961 15.4747 15.5418 15.8201C16.2142 16.5026 16.368 16.8765 16.368 17.9032C16.368 18.6724 16.3387 18.816 16.1088 19.2187C15.6663 19.9672 14.6396 20.6587 13.9293 20.6775C13.4295 20.688 13.4501 20.4667 13.9968 19.8911C14.7262 19.1325 14.8316 18.8449 14.8316 17.7112C14.8226 16.6174 14.688 16.2435 14.1795 15.936C13.7565 15.6769 13.2963 15.696 12.624 16.0121C10.8765 16.8484 8.98534 19.632 8.24697 22.4839C7.26709 26.2852 9.00447 29.3276 11.8653 28.809C12.7001 28.6552 14.2747 27.8497 14.9576 27.2152C15.5231 26.6981 15.5231 26.688 15.5801 26.0453C15.7061 24.7001 16.6552 23.3569 17.9238 22.7329C18.5081 22.4441 18.6532 22.4164 19.44 22.4164C20.1885 22.4164 20.3613 22.4546 20.7262 22.6552C21.8876 23.319 21.6476 24.864 20.3906 24.864C19.6612 24.864 19.2862 24.489 19.815 24.2887C20.3336 24.0967 20.1401 23.376 19.5367 23.2132C18.8261 23.0302 18.0191 23.5106 17.5106 24.432C16.8956 25.5458 16.8675 26.871 17.4521 27.4747C18.0191 28.0796 18.7293 27.6007 19.2772 26.2264C19.5645 25.5262 19.9773 25.1512 20.4581 25.1512C20.88 25.1512 20.9576 25.4107 20.7742 26.1986C20.505 27.4174 20.688 27.7339 21.4466 27.3604C21.6956 27.2445 22.1088 26.9768 22.3578 26.7848L22.8281 26.4098L23.1461 24.7485C23.4918 22.8866 23.625 22.6361 24.3356 22.503C25.0181 22.377 25.1718 22.7137 24.9213 23.7787L24.7863 24.375L25.2862 23.865C26.4667 22.6552 27.9168 22.0605 28.4163 22.56C28.6845 22.8281 28.6552 23.1649 28.2716 24.3544C28.0897 24.9214 27.8392 25.815 27.7252 26.3231C27.5523 27.0907 27.5418 27.2738 27.639 27.3986C27.9465 27.7631 28.8866 27.3881 29.7217 26.5721L30.2111 26.0933L30.2696 25.0267C30.3266 23.7979 30.441 23.3569 30.7676 22.9627C31.0751 22.5982 31.632 22.3301 31.9293 22.4062C32.2267 22.4839 32.2267 22.7711 31.9586 23.6164C31.5836 24.7777 31.623 27.4556 32.007 27.4556C32.1607 27.4556 32.9471 26.6306 33.447 25.9395L33.8205 25.4295L33.5231 25.1235C33.0045 24.576 32.88 24.2212 32.88 23.3276C32.88 22.6759 32.9283 22.4355 33.0907 22.1175C33.3603 21.6195 33.7822 21.255 34.2817 21.1099C34.809 20.9471 35.4622 21.2152 35.7303 21.6956C36 22.185 35.9328 23.2792 35.5867 24.0292L35.3377 24.5756H35.6733C36.1346 24.5756 36.3165 24.4612 37.1426 23.6835C37.5746 23.2706 38.0741 22.9147 38.4476 22.7419C39.9168 22.0519 41.6456 22.4062 41.9325 23.4622C42.1725 24.3075 41.6456 24.9022 40.7227 24.8347C40.0605 24.7867 39.936 24.6135 40.32 24.2887C41.0111 23.7112 40.32 22.9732 39.3311 23.2414C38.7933 23.3861 38.1885 23.9899 37.8723 24.6915C37.2378 26.0933 37.5746 27.744 38.4858 27.744C38.8507 27.744 39.495 27.0236 39.744 26.3231C40.0413 25.5161 40.6653 25.008 41.1356 25.1906C41.3951 25.2863 41.4142 25.5454 41.2515 26.3614C41.0685 27.255 41.0403 28.0901 41.184 28.4737C41.2413 28.617 41.4142 28.8866 41.5781 29.0685C41.8841 29.4139 41.8946 29.5387 41.6351 29.7026C41.5106 29.7889 41.3463 29.751 40.944 29.5301C40.3871 29.2414 39.9067 28.7228 39.7338 28.2334L39.6285 27.9461L39.2445 28.2334C39.0232 28.3871 38.6778 28.56 38.4768 28.617C37.68 28.8281 36.7001 28.2817 36.2403 27.3604C36.057 27.0041 36 25.9586 36.1346 25.5555C36.2111 25.3343 36.2111 25.3343 35.9032 25.488C35.7408 25.5746 35.3951 25.6699 35.127 25.6991C34.6845 25.7479 34.617 25.7959 34.1763 26.3524C33.5523 27.1286 32.4476 28.1764 31.9965 28.3976C31.0372 28.8765 30.7207 28.7419 30.4702 27.7526L30.2973 27.0907L29.8841 27.4556C29.3568 27.9169 28.3008 28.4738 27.6956 28.6084C27.12 28.7329 26.505 28.5499 26.2556 28.1659C25.8825 27.5903 26.007 26.3715 26.6013 24.7294C27.0423 23.5106 26.7262 23.4919 25.6128 24.6532C24.7867 25.5262 24.432 26.1502 24.2021 27.12C23.9621 28.128 23.6733 28.4925 23.0216 28.6462C22.6275 28.7329 22.4441 28.4925 22.5221 27.9652L22.5791 27.5419L22.2142 27.7924C21.6956 28.1471 21.0423 28.4738 20.5912 28.5983C20.1401 28.7228 19.5453 28.5892 19.4017 28.3387C19.1426 27.8981 19.1426 27.8981 18.7398 28.2142C17.8653 28.9249 16.6173 28.7227 15.9843 27.7822L15.7818 27.4849L15.1492 28.0706C13.3241 29.7409 11.0403 30.4894 9.35021 29.9707C7.19959 29.319 6.01009 27.4748 6.02921 24.816C6.03821 22.1471 7.21872 19.3346 9.20659 17.2515C10.3301 16.0796 11.3861 15.3881 12.4616 15.129C13.2378 14.937 13.7096 14.9467 14.4476 15.177Z" fill="#00C4CC"/>
<path d="M33.9067 22.0035C33.6956 22.2143 33.7732 23.0595 34.0417 23.5973C34.1763 23.8755 34.32 24.0968 34.368 24.0968C34.4062 24.0968 34.4925 23.8755 34.56 23.6059C34.8 22.6084 34.368 21.5419 33.9067 22.0035Z" fill="#00C4CC"/>
</g>
<defs>
<clipPath id="clip0_67_38">
<rect width="48" height="48" fill="white"/>
</clipPath>
</defs>
</svg>
