<svg width="48" height="48" viewBox="0 0 48 48" fill="none" xmlns="http://www.w3.org/2000/svg">
<path d="M8.85289 40.8015L5.48389 3H42.5159L39.1424 40.7955L23.9774 45L8.85289 40.8015Z" fill="#1572B6"/>
<path d="M24 41.787L36.255 38.3895L39.138 6.0915H24V41.787Z" fill="#33A9DC"/>
<path d="M24 19.7865H30.135L30.558 15.039H24V10.4025H35.625L35.514 11.646L34.3755 24.423H24V19.7865Z" fill="white"/>
<path d="M24.0286 31.827L24.0076 31.833L18.8446 30.438L18.5146 26.7405H13.8601L14.5096 34.02L24.0061 36.657L24.0286 36.651V31.827Z" fill="#EBEBEB"/>
<path d="M29.7405 24.2265L29.1825 30.435L24.012 31.83V36.654L33.516 34.02L33.5865 33.237L34.392 24.2265H29.7405Z" fill="white"/>
<path d="M24.0166 10.4025V15.039H12.8176L12.7246 13.9965L12.5131 11.646L12.4021 10.4025H24.0166ZM24.0001 19.7865V24.423H18.9016L18.8086 23.3805L18.5986 21.03L18.4876 19.7865H24.0001Z" fill="#EBEBEB"/>
</svg>
