<svg width="48" height="48" viewBox="0 0 48 48" fill="none" xmlns="http://www.w3.org/2000/svg">
<path d="M23.875 4C21.265 4 18.6805 4.52685 16.2692 5.55045C13.8578 6.57406 11.6668 8.07439 9.82125 9.96578C6.09397 13.7856 4 18.9664 4 24.3684C4 33.3713 9.70413 41.0094 17.5945 43.7184C18.5882 43.8814 18.9062 43.25 18.9062 42.7V39.2578C13.4009 40.4799 12.2282 36.5284 12.2282 36.5284C11.314 34.1657 10.0221 33.5342 10.0221 33.5342C8.2135 32.2714 10.1612 32.3121 10.1612 32.3121C12.1487 32.4547 13.2021 34.4101 13.2021 34.4101C14.9312 37.5061 17.8529 36.5895 18.9857 36.1007C19.1646 34.7767 19.6814 33.8805 20.2379 33.3713C15.8256 32.8621 11.1947 31.1104 11.1947 23.35C11.1947 21.0891 11.95 19.2763 13.2419 17.8302C13.0431 17.321 12.3475 15.2026 13.4406 12.4529C13.4406 12.4529 15.1101 11.903 18.9062 14.5305C20.4764 14.0824 22.1856 13.8583 23.875 13.8583C25.5644 13.8583 27.2736 14.0824 28.8437 14.5305C32.6399 11.903 34.3094 12.4529 34.3094 12.4529C35.4025 15.2026 34.7069 17.321 34.5081 17.8302C35.8 19.2763 36.5552 21.0891 36.5552 23.35C36.5552 31.1308 31.9045 32.8417 27.4724 33.3509C28.1879 33.9823 28.8437 35.2248 28.8437 37.1191V42.7C28.8437 43.25 29.1617 43.9018 30.1754 43.7184C38.0657 40.9891 43.75 33.3713 43.75 24.3684C43.75 21.6936 43.2359 19.045 42.2371 16.5738C41.2383 14.1026 39.7743 11.8572 37.9287 9.96578C36.0832 8.07439 33.8922 6.57406 31.4808 5.55045C29.0695 4.52685 26.485 4 23.875 4Z" fill="white"/>
</svg>
