<svg width="48" height="48" viewBox="0 0 48 48" fill="none" xmlns="http://www.w3.org/2000/svg">
<mask id="mask0_67_22" style="mask-type:luminance" maskUnits="userSpaceOnUse" x="11" y="5" width="26" height="38">
<path d="M11.4375 5.25H36.4425V42.75H11.4375V5.25Z" fill="white"/>
</mask>
<g mask="url(#mask0_67_22)">
<path d="M17.6901 42.75C21.1401 42.75 23.94 39.9501 23.94 36.5001V30.2499H17.6901C14.2401 30.2499 11.4399 33.0501 11.4399 36.5001C11.4399 39.9501 14.2401 42.75 17.6901 42.75Z" fill="#0ACF83"/>
<path d="M11.4399 24C11.4399 20.55 14.2401 17.7501 17.6901 17.7501H23.94V30.2499H17.6901C14.2401 30.2499 11.4399 27.45 11.4399 24Z" fill="#A259FF"/>
<path d="M11.4399 11.4999C11.4399 8.04994 14.2401 5.25 17.6901 5.25H23.94V17.7501H17.6901C14.2401 17.7501 11.4399 14.9499 11.4399 11.4999Z" fill="#F24E1E"/>
<path d="M23.9401 5.25H30.19C33.64 5.25 36.4401 8.04994 36.4401 11.4999C36.4401 14.9499 33.64 17.7501 30.19 17.7501H23.9401V5.25Z" fill="#FF7262"/>
<path d="M36.4401 24C36.4401 27.45 33.64 30.2499 30.19 30.2499C26.74 30.2499 23.9401 27.45 23.9401 24C23.9401 20.55 26.74 17.7501 30.19 17.7501C33.64 17.7501 36.4401 20.55 36.4401 24Z" fill="#1ABCFE"/>
</g>
</svg>
