<svg width="48" height="48" viewBox="0 0 48 48" fill="none" xmlns="http://www.w3.org/2000/svg">
<path d="M8.85292 40.8015L5.48242 3H42.5174L39.1424 40.7955L23.9774 45L8.85292 40.8015Z" fill="#E44F26"/>
<path d="M24 41.787L36.255 38.3895L39.138 6.0915H24V41.787Z" fill="#F1662A"/>
<path d="M24 20.1105H17.865L17.442 15.363H24V10.7265H12.375L12.486 11.9715L13.6245 24.747H24V20.1105ZM24 32.151L23.979 32.157L18.816 30.7635L18.486 27.066H13.8315L14.481 34.344L23.979 36.981L24 36.975V32.151Z" fill="#EBEBEB"/>
<path d="M23.9834 20.1105V24.747H29.6924L29.1554 30.7605L23.9834 32.1555V36.9795L33.4889 34.344L33.5579 33.561L34.6469 21.3555L34.7609 20.1105H33.5114H23.9834ZM23.9834 10.7265V15.363H35.1824L35.2754 14.322L35.4869 11.9715L35.5979 10.7265H23.9834Z" fill="white"/>
</svg>
