<svg width="1337" height="766" viewBox="0 0 1337 766" fill="none" xmlns="http://www.w3.org/2000/svg">
<g clip-path="url(#clip0_57_108)">
<mask id="mask0_57_108" style="mask-type:luminance" maskUnits="userSpaceOnUse" x="-313" y="0" width="1970" height="766">
<path d="M-313 0H1657V766H-313V0Z" fill="white"/>
</mask>
<g mask="url(#mask0_57_108)">
<path d="M-313 0H1657V766H-313V0Z" fill="#E0F4FF" fill-opacity="0.6"/>
<path d="M1722.67 766H-313V494.344C-260.74 437.167 -206.018 434.71 -148.833 486.971C-118.034 408.337 -63.3116 384.423 15.3333 415.227C82.5596 373.015 137.282 385.521 179.5 452.747C227.555 391.367 282.277 384.701 343.667 432.749C389.816 413.234 422.649 426.543 442.167 472.677C506.62 427.692 561.343 437.422 606.333 501.867C633.384 419.485 688.107 391.818 770.5 418.865C811.888 394.59 844.722 403.144 869 444.526C882.188 392.055 915.021 372.413 967.5 385.599C1027.75 336.402 1082.47 341.923 1131.67 402.164C1200.43 361.493 1255.16 375.536 1295.83 444.294C1371.79 410.809 1426.51 432.033 1460 507.967C1477.31 459.627 1510.14 444.111 1558.5 461.419C1621.62 415.104 1676.34 423.507 1722.67 486.629V766Z" fill="#182F5D"/>
<path d="M1755.5 766H-313V522.768C-265.237 504.867 -232.403 519.795 -214.5 567.551C-210.688 505.706 -177.854 476.689 -116 480.501C-51.4004 479.434 -18.5671 511.191 -17.5 575.772C5.20972 532.821 38.0431 522.699 81 545.406C102.469 501.215 135.303 489.852 179.5 511.319C207.664 473.821 240.497 469.152 278 497.312C367.015 476.876 421.737 511.159 442.167 600.161C456.203 548.538 489.036 529.744 540.667 543.778C561.616 499.067 594.45 487.185 639.167 508.132C664.904 468.208 697.738 461.114 737.667 486.848C807.538 447.28 862.26 462.427 901.833 532.288C924.096 488.89 956.93 478.321 1000.33 500.581C1077.67 468.473 1132.39 491.079 1164.5 568.399C1230.99 525.449 1285.71 537.212 1328.67 603.69C1351.32 516.904 1406.04 484.837 1492.83 507.489C1532 480.989 1564.83 487.322 1591.33 526.488C1653.47 479.188 1708.19 486.606 1755.5 548.743V766Z" fill="#25467D"/>
<path d="M1755.5 766H-313V681.138C-293.738 634.74 -260.904 621.171 -214.5 640.431C-173.55 571.947 -118.827 558.177 -50.3333 599.121C1.41565 585.206 34.249 604.118 48.1667 655.86C109.355 607.611 164.077 614.076 212.333 675.256C273.084 626.57 327.806 632.602 376.5 693.353C403.232 610.643 457.954 582.652 540.667 609.38C582.155 585.206 614.989 593.855 639.167 635.328C713.571 600.293 768.293 619.967 803.333 694.351C804.054 629.415 836.887 597.307 901.833 598.027C949.086 535.844 1003.81 528.376 1066 575.621C1133.44 533.619 1188.16 546.331 1230.17 613.757C1280.76 598.684 1313.59 616.438 1328.67 667.022C1366.75 639.446 1399.59 644.698 1427.17 682.779C1446.97 593.157 1501.69 558.245 1591.33 578.043C1654.45 531.718 1709.17 540.107 1755.5 603.211V766Z" fill="#356CB1"/>
<path d="M1722.67 766H-313V675.762C-276.363 646.736 -243.53 650.539 -214.5 687.17C-148.678 643.554 -93.9561 654.652 -50.3333 720.464C5.26443 710.396 38.0978 733.158 48.1667 788.747C72.0347 746.955 104.868 737.991 146.667 761.855C149.895 699.426 182.729 669.83 245.167 673.068C278.337 640.576 311.171 640.914 343.667 674.08C413.383 634.357 468.105 649.349 507.833 719.055C532.021 677.582 564.854 668.937 606.333 693.12C684.075 661.423 738.798 684.439 770.5 762.17C807.593 689.838 862.315 672.215 934.667 709.302C959.574 668.549 992.408 660.625 1033.17 685.529C1116.23 659.147 1170.95 687.476 1197.33 770.514C1212.21 719.73 1245.04 701.774 1295.83 716.648C1342.94 654.319 1397.66 646.704 1460 693.804C1534.77 659.143 1589.49 679.191 1624.17 753.949C1630.05 694.174 1662.88 667.227 1722.67 673.109V766Z" fill="white"/>
</g>
</g>
<defs>
<clipPath id="clip0_57_108">
<rect width="1337" height="766" rx="20" fill="white"/>
</clipPath>
</defs>
</svg>
