<svg width="100" height="100" viewBox="0 0 150 150" fill="none" xmlns="http://www.w3.org/2000/svg">
<rect width="150" height="150" rx="20" fill="#39A7FF"/>
<path d="M55.5542 81.832V88.744C55.5542 89.5013 55.7515 90.0827 56.1462 90.488C56.5409 90.8827 57.0955 91.08 57.8102 91.08C58.5355 91.08 59.0955 90.8827 59.4902 90.488C59.8849 90.0827 60.0822 89.5013 60.0822 88.744V81.832H62.3382V88.728C62.3382 89.6773 62.1302 90.4827 61.7142 91.144C61.3089 91.7947 60.7595 92.2853 60.0662 92.616C59.3835 92.9467 58.6209 93.112 57.7782 93.112C56.9462 93.112 56.1889 92.9467 55.5062 92.616C54.8342 92.2853 54.3009 91.7947 53.9062 91.144C53.5115 90.4827 53.3142 89.6773 53.3142 88.728V81.832H55.5542ZM66.7424 81.832V93H64.5024V81.832H66.7424ZM74.9556 77.848L70.6356 95.896H68.4436L72.7636 77.848H74.9556ZM78.9448 81.832V88.744C78.9448 89.5013 79.1421 90.0827 79.5368 90.488C79.9315 90.8827 80.4861 91.08 81.2008 91.08C81.9261 91.08 82.4861 90.8827 82.8808 90.488C83.2755 90.0827 83.4728 89.5013 83.4728 88.744V81.832H85.7288V88.728C85.7288 89.6773 85.5208 90.4827 85.1048 91.144C84.6995 91.7947 84.1501 92.2853 83.4568 92.616C82.7741 92.9467 82.0115 93.112 81.1688 93.112C80.3368 93.112 79.5795 92.9467 78.8968 92.616C78.2248 92.2853 77.6915 91.7947 77.2968 91.144C76.9021 90.4827 76.7048 89.6773 76.7048 88.728V81.832H78.9448ZM94.5811 93L92.1651 89.24L89.9731 93H87.4451L90.9651 87.368L87.3971 81.832H89.9731L92.3891 85.576L94.5651 81.832H97.0931L93.5891 87.448L97.1571 93H94.5811ZM41.508 105.832C42.6813 105.832 43.7107 106.061 44.596 106.52C45.492 106.979 46.18 107.635 46.66 108.488C47.1507 109.331 47.396 110.312 47.396 111.432C47.396 112.552 47.1507 113.533 46.66 114.376C46.18 115.208 45.492 115.853 44.596 116.312C43.7107 116.771 42.6813 117 41.508 117H37.604V105.832H41.508ZM41.428 115.096C42.6013 115.096 43.508 114.776 44.148 114.136C44.788 113.496 45.108 112.595 45.108 111.432C45.108 110.269 44.788 109.363 44.148 108.712C43.508 108.051 42.6013 107.72 41.428 107.72H39.844V115.096H41.428ZM51.3128 107.64V110.44H55.0728V112.216H51.3128V115.176H55.5528V117H49.0728V105.816H55.5528V107.64H51.3128ZM61.4444 117.112C60.6657 117.112 59.9617 116.979 59.3324 116.712C58.7137 116.445 58.223 116.061 57.8604 115.56C57.4977 115.059 57.311 114.467 57.3004 113.784H59.7004C59.7324 114.243 59.8924 114.605 60.1804 114.872C60.479 115.139 60.8844 115.272 61.3964 115.272C61.919 115.272 62.3297 115.149 62.6284 114.904C62.927 114.648 63.0764 114.317 63.0764 113.912C63.0764 113.581 62.975 113.309 62.7724 113.096C62.5697 112.883 62.3137 112.717 62.0044 112.6C61.7057 112.472 61.2897 112.333 60.7564 112.184C60.031 111.971 59.439 111.763 58.9804 111.56C58.5324 111.347 58.143 111.032 57.8124 110.616C57.4924 110.189 57.3324 109.624 57.3324 108.92C57.3324 108.259 57.4977 107.683 57.8284 107.192C58.159 106.701 58.623 106.328 59.2204 106.072C59.8177 105.805 60.5004 105.672 61.2684 105.672C62.4204 105.672 63.3537 105.955 64.0684 106.52C64.7937 107.075 65.1937 107.853 65.2684 108.856H62.8044C62.783 108.472 62.6177 108.157 62.3084 107.912C62.0097 107.656 61.6097 107.528 61.1084 107.528C60.671 107.528 60.319 107.64 60.0524 107.864C59.7964 108.088 59.6684 108.413 59.6684 108.84C59.6684 109.139 59.7644 109.389 59.9564 109.592C60.159 109.784 60.4044 109.944 60.6924 110.072C60.991 110.189 61.407 110.328 61.9404 110.488C62.6657 110.701 63.2577 110.915 63.7164 111.128C64.175 111.341 64.5697 111.661 64.9004 112.088C65.231 112.515 65.3964 113.075 65.3964 113.768C65.3964 114.365 65.2417 114.92 64.9324 115.432C64.623 115.944 64.1697 116.355 63.5724 116.664C62.975 116.963 62.2657 117.112 61.4444 117.112ZM69.5784 105.832V117H67.3384V105.832H69.5784ZM79.5675 109.192C79.3115 108.723 78.9595 108.365 78.5115 108.12C78.0635 107.875 77.5408 107.752 76.9435 107.752C76.2822 107.752 75.6955 107.901 75.1835 108.2C74.6715 108.499 74.2715 108.925 73.9835 109.48C73.6955 110.035 73.5515 110.675 73.5515 111.4C73.5515 112.147 73.6955 112.797 73.9835 113.352C74.2822 113.907 74.6928 114.333 75.2155 114.632C75.7382 114.931 76.3462 115.08 77.0395 115.08C77.8928 115.08 78.5915 114.856 79.1355 114.408C79.6795 113.949 80.0368 113.315 80.2075 112.504H76.3675V110.792H82.4155V112.744C82.2662 113.523 81.9462 114.243 81.4555 114.904C80.9648 115.565 80.3302 116.099 79.5515 116.504C78.7835 116.899 77.9195 117.096 76.9595 117.096C75.8822 117.096 74.9062 116.856 74.0315 116.376C73.1675 115.885 72.4848 115.208 71.9835 114.344C71.4928 113.48 71.2475 112.499 71.2475 111.4C71.2475 110.301 71.4928 109.32 71.9835 108.456C72.4848 107.581 73.1675 106.904 74.0315 106.424C74.9062 105.933 75.8768 105.688 76.9435 105.688C78.2022 105.688 79.2955 105.997 80.2235 106.616C81.1515 107.224 81.7915 108.083 82.1435 109.192H79.5675ZM93.6248 117H91.3848L86.3128 109.336V117H84.0728V105.816H86.3128L91.3848 113.496V105.816H93.6248V117ZM98.0784 107.64V110.44H101.838V112.216H98.0784V115.176H102.318V117H95.8384V105.816H102.318V107.64H98.0784ZM110.114 117L107.65 112.648H106.594V117H104.354V105.832H108.546C109.41 105.832 110.146 105.987 110.754 106.296C111.362 106.595 111.815 107.005 112.114 107.528C112.423 108.04 112.578 108.616 112.578 109.256C112.578 109.992 112.365 110.659 111.938 111.256C111.511 111.843 110.877 112.248 110.034 112.472L112.706 117H110.114ZM106.594 110.968H108.466C109.074 110.968 109.527 110.824 109.826 110.536C110.125 110.237 110.274 109.827 110.274 109.304C110.274 108.792 110.125 108.397 109.826 108.12C109.527 107.832 109.074 107.688 108.466 107.688H106.594V110.968Z" fill="white"/>
<path d="M67.6251 47.8446L73.8418 41.6115L68.2511 36.0045L65.102 39.1537L63.1749 37.2293L66.3105 34.0774L60.9974 28.7643L54.7643 34.9974L67.6251 47.8446ZM88.9482 69.184L95.1812 62.9509L89.8709 57.6378L86.719 60.7734L84.7919 58.8463L87.9275 55.6944L82.3749 50.1582L76.1554 56.3749L88.9482 69.184ZM85.1103 34.2189L89.8137 38.9196L94.5661 34.1672L89.8491 29.4502L85.1131 34.2189H85.1103ZM62.3093 70.2781H53.7219V61.6934L65.6817 49.7335L51 34.9974L60.9974 25L75.8016 39.7525L87.9601 27.5776C88.2595 27.2764 88.5753 27.0595 88.9073 26.9271C89.2394 26.7946 89.5933 26.7284 89.9689 26.7284C90.3463 26.7284 90.7001 26.7946 91.0304 26.9271C91.3606 27.0595 91.6773 27.2764 91.9803 27.5776L96.4224 32.1939C96.7236 32.4933 96.9323 32.809 97.0484 33.1411C97.1627 33.4713 97.2199 33.8252 97.2199 34.2026C97.2199 34.58 97.1618 34.923 97.0457 35.2315C96.9314 35.5399 96.7236 35.8448 96.4224 36.146L84.37 48.2665L99 63.0026L89.0026 73L74.2665 58.3183L62.3066 70.2781H62.3093Z" fill="white"/>
</svg>
