<svg width="100" height="100" viewBox="0 0 150 150" fill="none" xmlns="http://www.w3.org/2000/svg">
<rect width="150" height="150" rx="20" fill="#39A7FF"/>
<path d="M74.4383 81.832L71.3183 93H68.6783L66.5823 85.048L64.3903 93L61.7663 93.016L58.7583 81.832H61.1583L63.1263 90.504L65.3983 81.832H67.8943L70.0383 90.456L72.0223 81.832H74.4383ZM78.1409 83.64V86.44H81.9009V88.216H78.1409V91.176H82.3809V93H75.9009V81.816H82.3809V83.64H78.1409ZM90.7525 87.272C91.3818 87.3893 91.8992 87.704 92.3045 88.216C92.7098 88.728 92.9125 89.3147 92.9125 89.976C92.9125 90.5733 92.7632 91.1013 92.4645 91.56C92.1765 92.008 91.7552 92.36 91.2005 92.616C90.6458 92.872 89.9898 93 89.2325 93H84.4165V81.832H89.0245C89.7818 81.832 90.4325 81.9547 90.9765 82.2C91.5312 82.4453 91.9472 82.7867 92.2245 83.224C92.5125 83.6613 92.6565 84.1573 92.6565 84.712C92.6565 85.3627 92.4805 85.9067 92.1285 86.344C91.7872 86.7813 91.3285 87.0907 90.7525 87.272ZM86.6565 86.44H88.7045C89.2378 86.44 89.6485 86.3227 89.9365 86.088C90.2245 85.8427 90.3685 85.496 90.3685 85.048C90.3685 84.6 90.2245 84.2533 89.9365 84.008C89.6485 83.7627 89.2378 83.64 88.7045 83.64H86.6565V86.44ZM88.9125 91.176C89.4565 91.176 89.8778 91.048 90.1765 90.792C90.4858 90.536 90.6405 90.1733 90.6405 89.704C90.6405 89.224 90.4805 88.8507 90.1605 88.584C89.8405 88.3067 89.4085 88.168 88.8645 88.168H86.6565V91.176H88.9125ZM36.8674 105.832C38.0407 105.832 39.07 106.061 39.9554 106.52C40.8514 106.979 41.5394 107.635 42.0194 108.488C42.51 109.331 42.7554 110.312 42.7554 111.432C42.7554 112.552 42.51 113.533 42.0194 114.376C41.5394 115.208 40.8514 115.853 39.9554 116.312C39.07 116.771 38.0407 117 36.8674 117H32.9634V105.832H36.8674ZM36.7874 115.096C37.9607 115.096 38.8674 114.776 39.5074 114.136C40.1474 113.496 40.4674 112.595 40.4674 111.432C40.4674 110.269 40.1474 109.363 39.5074 108.712C38.8674 108.051 37.9607 107.72 36.7874 107.72H35.2034V115.096H36.7874ZM46.6721 107.64V110.44H50.4321V112.216H46.6721V115.176H50.9121V117H44.4321V105.816H50.9121V107.64H46.6721ZM62.9798 105.832L58.8838 117H56.1638L52.0678 105.832H54.4678L57.5398 114.712L60.5958 105.832H62.9798ZM66.5628 107.64V110.44H70.3228V112.216H66.5628V115.176H70.8028V117H64.3228V105.816H70.8028V107.64H66.5628ZM75.0784 115.224H78.7584V117H72.8384V105.832H75.0784V115.224ZM85.3661 117.112C84.3208 117.112 83.3608 116.867 82.4861 116.376C81.6115 115.885 80.9181 115.208 80.4061 114.344C79.8941 113.469 79.6381 112.483 79.6381 111.384C79.6381 110.296 79.8941 109.32 80.4061 108.456C80.9181 107.581 81.6115 106.899 82.4861 106.408C83.3608 105.917 84.3208 105.672 85.3661 105.672C86.4221 105.672 87.3821 105.917 88.2461 106.408C89.1208 106.899 89.8088 107.581 90.3101 108.456C90.8221 109.32 91.0781 110.296 91.0781 111.384C91.0781 112.483 90.8221 113.469 90.3101 114.344C89.8088 115.208 89.1208 115.885 88.2461 116.376C87.3715 116.867 86.4115 117.112 85.3661 117.112ZM85.3661 115.112C86.0381 115.112 86.6301 114.963 87.1421 114.664C87.6541 114.355 88.0541 113.917 88.3421 113.352C88.6301 112.787 88.7741 112.131 88.7741 111.384C88.7741 110.637 88.6301 109.987 88.3421 109.432C88.0541 108.867 87.6541 108.435 87.1421 108.136C86.6301 107.837 86.0381 107.688 85.3661 107.688C84.6941 107.688 84.0968 107.837 83.5741 108.136C83.0621 108.435 82.6621 108.867 82.3741 109.432C82.0861 109.987 81.9421 110.637 81.9421 111.384C81.9421 112.131 82.0861 112.787 82.3741 113.352C82.6621 113.917 83.0621 114.355 83.5741 114.664C84.0968 114.963 84.6941 115.112 85.3661 115.112ZM100.889 109.288C100.889 109.885 100.745 110.445 100.457 110.968C100.179 111.491 99.7366 111.912 99.1286 112.232C98.5313 112.552 97.774 112.712 96.8566 112.712H94.9846V117H92.7446V105.832H96.8566C97.7206 105.832 98.4566 105.981 99.0646 106.28C99.6726 106.579 100.126 106.989 100.425 107.512C100.734 108.035 100.889 108.627 100.889 109.288ZM96.7606 110.904C97.3793 110.904 97.838 110.765 98.1366 110.488C98.4353 110.2 98.5846 109.8 98.5846 109.288C98.5846 108.2 97.9766 107.656 96.7606 107.656H94.9846V110.904H96.7606ZM104.719 107.64V110.44H108.479V112.216H104.719V115.176H108.959V117H102.479V105.816H108.959V107.64H104.719ZM116.755 117L114.291 112.648H113.235V117H110.995V105.832H115.187C116.051 105.832 116.787 105.987 117.395 106.296C118.003 106.595 118.456 107.005 118.755 107.528C119.064 108.04 119.219 108.616 119.219 109.256C119.219 109.992 119.005 110.659 118.579 111.256C118.152 111.843 117.517 112.248 116.675 112.472L119.347 117H116.755ZM113.235 110.968H115.107C115.715 110.968 116.168 110.824 116.467 110.536C116.765 110.237 116.915 109.827 116.915 109.304C116.915 108.792 116.765 108.397 116.467 108.12C116.168 107.832 115.715 107.688 115.107 107.688H113.235V110.968Z" fill="white"/>
<path d="M95.4 30H54.6C52.6118 30 51 31.6118 51 33.6V64.8C51 66.7882 52.6118 68.4 54.6 68.4H95.4C97.3882 68.4 99 66.7882 99 64.8V33.6C99 31.6118 97.3882 30 95.4 30Z" stroke="white" stroke-width="4" stroke-linejoin="round"/>
<path d="M51 33.6C51 31.6118 52.6118 30 54.6 30H95.4C97.3883 30 99 31.6118 99 33.6V44.4H51V33.6Z" fill="#2F88FF" stroke="white" stroke-width="4"/>
<path d="M55.8001 37.2001C55.8001 35.8746 56.8746 34.8001 58.2001 34.8001C59.5256 34.8001 60.6001 35.8746 60.6001 37.2001C60.6001 38.5256 59.5256 39.6001 58.2001 39.6001C56.8746 39.6001 55.8001 38.5256 55.8001 37.2001Z" fill="black"/>
<path d="M62.9998 37.2001C62.9998 35.8746 64.0743 34.8001 65.3998 34.8001C66.7253 34.8001 67.7998 35.8746 67.7998 37.2001C67.7998 38.5256 66.7253 39.6001 65.3998 39.6001C64.0743 39.6001 62.9998 38.5256 62.9998 37.2001Z" fill="black"/>
</svg>
